# xmcd
#
# Track frame offsets:
#	150
#	11805
#	23727
#	35480
#	47922
#	59635
#	69747
#	78845
#	89690
#	100805
#	111245
#	121395
#
# Disc length: 1763 seconds
#
# Revision: 3
# Processed by: cddbd v1.5.1PL2 Copyright (c) Steve Scherf et al.
# Submitted via: audiograbber 1.83.01
#
DISCID=a406e10c
DTITLE=The Wilburn Brothers - Retrospective
DYEAR=1990
DGENRE=Country
TTITLE0=Hurt Her Once For Me
TTITLE1=Someone Before Me
TTITLE2=Which One Is To Blame
TTITLE3=Not That I Care
TTITLE4=Knoxville Girl
TTITLE5=Trouble's Back In Town
TTITLE6=It's Another World
TTITLE7=Making Plans
TTITLE8=Somebody's Back In Town
TTITLE9=Roll Muddy River
TTITLE10=I'm Gonna Tie One On Tonight
TTITLE11=Arkansas
EXTD=
EXTT0=
EXTT1=
EXTT2=
EXTT3=
EXTT4=
EXTT5=
EXTT6=
EXTT7=
EXTT8=
EXTT9=
EXTT10=
EXTT11=
PLAYORDER=
